<?xml version="1.0" encoding="UTF-8" standalone="no"?>
<!DOCTYPE svg PUBLIC "-//W3C//DTD SVG 1.1//EN"
 "http://www.w3.org/Graphics/SVG/1.1/DTD/svg11.dtd">
<!-- Generated by graphviz version 2.36.0 (20140111.2315)
 -->
<!-- Title: G Pages: 1 -->
<svg width="368pt" height="312pt"
 viewBox="0.00 0.00 368.00 312.00" xmlns="http://www.w3.org/2000/svg" xmlns:xlink="http://www.w3.org/1999/xlink">
<g id="graph0" class="graph" transform="scale(1 1) rotate(0) translate(4 308)">
<title>G</title>
<polygon fill="white" stroke="none" points="-4,4 -4,-308 364,-308 364,4 -4,4"/>
<g id="clust1" class="cluster"><title>cluster_Global</title>
<path fill="none" stroke="gray" d="M202,-8C202,-8 340,-8 340,-8 346,-8 352,-14 352,-20 352,-20 352,-284 352,-284 352,-290 346,-296 340,-296 340,-296 202,-296 202,-296 196,-296 190,-290 190,-284 190,-284 190,-20 190,-20 190,-14 196,-8 202,-8"/>
<text text-anchor="middle" x="271" y="-283.2" font-family="Times,serif" font-size="11.00" fill="gray">Global</text>
</g>
<!-- \\User -->
<g id="node1" class="node"><title>\\User</title>
<polygon fill="none" stroke="black" points="298,-268 244,-268 244,-232 298,-232 298,-268"/>
<text text-anchor="middle" x="271" y="-247.2" font-family="Courier,monospace" font-size="11.00">User</text>
</g>
<!-- \\CI_Controller -->
<g id="node6" class="node"><title>\\CI_Controller</title>
<ellipse fill="none" stroke="black" cx="63" cy="-209" rx="62.2891" ry="18"/>
<text text-anchor="middle" x="63" y="-205.3" font-family="Times,serif" font-size="14.00" fill="gray">\CI_Controller</text>
</g>
<!-- \\User&#45;&gt;\\CI_Controller -->
<g id="edge1" class="edge"><title>\\User&#45;&gt;\\CI_Controller</title>
<path fill="none" stroke="black" d="M243.91,-244.807C214.068,-238.868 164.214,-228.945 124.544,-221.05"/>
<polygon fill="none" stroke="black" points="125.187,-217.609 114.696,-219.09 123.821,-224.475 125.187,-217.609"/>
</g>
<!-- \\Welcome -->
<g id="node2" class="node"><title>\\Welcome</title>
<polygon fill="none" stroke="black" points="303,-214 239,-214 239,-178 303,-178 303,-214"/>
<text text-anchor="middle" x="271" y="-193.2" font-family="Courier,monospace" font-size="11.00">Welcome</text>
</g>
<!-- \\Welcome&#45;&gt;\\CI_Controller -->
<g id="edge2" class="edge"><title>\\Welcome&#45;&gt;\\CI_Controller</title>
<path fill="none" stroke="black" d="M238.713,-197.974C211.156,-199.713 170.003,-202.31 134.559,-204.547"/>
<polygon fill="none" stroke="black" points="134.008,-201.075 124.248,-205.198 134.449,-208.061 134.008,-201.075"/>
</g>
<!-- \\User_standard_model -->
<g id="node3" class="node"><title>\\User_standard_model</title>
<polygon fill="none" stroke="black" points="343.5,-160 198.5,-160 198.5,-124 343.5,-124 343.5,-160"/>
<text text-anchor="middle" x="271" y="-139.2" font-family="Courier,monospace" font-size="11.00">User_standard_model</text>
</g>
<!-- \\CI_Model -->
<g id="node7" class="node"><title>\\CI_Model</title>
<ellipse fill="none" stroke="black" cx="63" cy="-128" rx="50.0912" ry="18"/>
<text text-anchor="middle" x="63" y="-124.3" font-family="Times,serif" font-size="14.00" fill="gray">\CI_Model</text>
</g>
<!-- \\User_standard_model&#45;&gt;\\CI_Model -->
<g id="edge3" class="edge"><title>\\User_standard_model&#45;&gt;\\CI_Model</title>
<path fill="none" stroke="black" d="M198.24,-137.123C173.459,-135.439 146.013,-133.574 122.429,-131.971"/>
<polygon fill="none" stroke="black" points="122.449,-128.464 112.234,-131.278 121.974,-135.448 122.449,-128.464"/>
</g>
<!-- \\User_model -->
<g id="node4" class="node"><title>\\User_model</title>
<polygon fill="none" stroke="black" points="313,-106 229,-106 229,-70 313,-70 313,-106"/>
<text text-anchor="middle" x="271" y="-85.2" font-family="Courier,monospace" font-size="11.00">User_model</text>
</g>
<!-- \\User_model&#45;&gt;\\CI_Model -->
<g id="edge4" class="edge"><title>\\User_model&#45;&gt;\\CI_Model</title>
<path fill="none" stroke="black" d="M228.808,-95.9985C196.855,-102.203 152.309,-110.853 117.584,-117.595"/>
<polygon fill="none" stroke="black" points="116.759,-114.19 107.61,-119.532 118.093,-121.062 116.759,-114.19"/>
</g>
<!-- \\User_standard -->
<g id="node5" class="node"><title>\\User_standard</title>
<polygon fill="none" stroke="black" points="323,-52 219,-52 219,-16 323,-16 323,-52"/>
<text text-anchor="middle" x="271" y="-31.2" font-family="Courier,monospace" font-size="11.00">User_standard</text>
</g>
</g>
</svg>
