<?xml version="1.0" encoding="UTF-8" standalone="no"?>
<!DOCTYPE svg PUBLIC "-//W3C//DTD SVG 1.1//EN"
 "http://www.w3.org/Graphics/SVG/1.1/DTD/svg11.dtd">
<!-- Generated by graphviz version 2.36.0 (20140111.2315)
 -->
<!-- Title: G Pages: 1 -->
<svg width="368pt" height="258pt"
 viewBox="0.00 0.00 368.00 258.00" xmlns="http://www.w3.org/2000/svg" xmlns:xlink="http://www.w3.org/1999/xlink">
<g id="graph0" class="graph" transform="scale(1 1) rotate(0) translate(4 254)">
<title>G</title>
<polygon fill="white" stroke="none" points="-4,4 -4,-254 364,-254 364,4 -4,4"/>
<g id="clust1" class="cluster"><title>cluster_Global</title>
<path fill="none" stroke="gray" d="M202,-8C202,-8 340,-8 340,-8 346,-8 352,-14 352,-20 352,-20 352,-230 352,-230 352,-236 346,-242 340,-242 340,-242 202,-242 202,-242 196,-242 190,-236 190,-230 190,-230 190,-20 190,-20 190,-14 196,-8 202,-8"/>
<text text-anchor="middle" x="271" y="-229.2" font-family="Times,serif" font-size="11.00" fill="gray">Global</text>
</g>
<!-- \\User_model -->
<g id="node1" class="node"><title>\\User_model</title>
<polygon fill="none" stroke="black" points="313,-214 229,-214 229,-178 313,-178 313,-214"/>
<text text-anchor="middle" x="271" y="-193.2" font-family="Courier,monospace" font-size="11.00">User_model</text>
</g>
<!-- \\CI_Model -->
<g id="node5" class="node"><title>\\CI_Model</title>
<ellipse fill="none" stroke="black" cx="63" cy="-169" rx="50.0912" ry="18"/>
<text text-anchor="middle" x="63" y="-165.3" font-family="Times,serif" font-size="14.00" fill="gray">\CI_Model</text>
</g>
<!-- \\User_model&#45;&gt;\\CI_Model -->
<g id="edge1" class="edge"><title>\\User_model&#45;&gt;\\CI_Model</title>
<path fill="none" stroke="black" d="M228.808,-190.601C197.737,-186.529 154.759,-180.896 120.482,-176.403"/>
<polygon fill="none" stroke="black" points="120.516,-172.878 110.146,-175.048 119.607,-179.818 120.516,-172.878"/>
</g>
<!-- \\User -->
<g id="node2" class="node"><title>\\User</title>
<polygon fill="none" stroke="black" points="298,-106 244,-106 244,-70 298,-70 298,-106"/>
<text text-anchor="middle" x="271" y="-85.2" font-family="Courier,monospace" font-size="11.00">User</text>
</g>
<!-- \\CI_Controller -->
<g id="node6" class="node"><title>\\CI_Controller</title>
<ellipse fill="none" stroke="black" cx="63" cy="-88" rx="62.2891" ry="18"/>
<text text-anchor="middle" x="63" y="-84.3" font-family="Times,serif" font-size="14.00" fill="gray">\CI_Controller</text>
</g>
<!-- \\User&#45;&gt;\\CI_Controller -->
<g id="edge2" class="edge"><title>\\User&#45;&gt;\\CI_Controller</title>
<path fill="none" stroke="black" d="M243.91,-88C216.894,-88 173.476,-88 136.062,-88"/>
<polygon fill="none" stroke="black" points="135.687,-84.5001 125.687,-88 135.687,-91.5001 135.687,-84.5001"/>
</g>
<!-- \\User_standard_model -->
<g id="node3" class="node"><title>\\User_standard_model</title>
<polygon fill="none" stroke="black" points="343.5,-160 198.5,-160 198.5,-124 343.5,-124 343.5,-160"/>
<text text-anchor="middle" x="271" y="-139.2" font-family="Courier,monospace" font-size="11.00">User_standard_model</text>
</g>
<!-- \\User_standard_model&#45;&gt;\\CI_Model -->
<g id="edge3" class="edge"><title>\\User_standard_model&#45;&gt;\\CI_Model</title>
<path fill="none" stroke="black" d="M198.24,-151.405C172.738,-154.748 144.414,-158.46 120.382,-161.61"/>
<polygon fill="none" stroke="black" points="119.826,-158.153 110.365,-162.923 120.735,-165.094 119.826,-158.153"/>
</g>
<!-- \\User_standard -->
<g id="node4" class="node"><title>\\User_standard</title>
<polygon fill="none" stroke="black" points="323,-52 219,-52 219,-16 323,-16 323,-52"/>
<text text-anchor="middle" x="271" y="-31.2" font-family="Courier,monospace" font-size="11.00">User_standard</text>
</g>
</g>
</svg>
